# xmcd CD database file
#
# Track frame offsets:
#	150
#	25840
#	46932
#	60705
#	81015
#	97317
#	114270
#	133422
#	153037
#	173462
#
# Disc length: 2550 seconds
#
# Revision: 1
# Processed by: cddbd v1.5.2PL0 Copyright (c) Steve Scherf et al.
# Submitted via: CDex 1.51
#
DISCID=7709f40a
DTITLE=Bobby Rush - Handy Man
DYEAR=1900
DGENRE=Blues
TTITLE0=Handy Man
TTITLE1=Long Way To Go
TTITLE2=Before Sex
TTITLE3=Crazy 'Bout You
TTITLE4=What's That?
TTITLE5=I'm Gone
TTITLE6=Easy, Baby
TTITLE7=Love Somebody
TTITLE8=Flashback
TTITLE9=Second Hand Man
EXTD=
EXTT0=
EXTT1=
EXTT2=
EXTT3=
EXTT4=
EXTT5=
EXTT6=
EXTT7=
EXTT8=
EXTT9=
PLAYORDER=
